# AST/ASF file generated using VICON BodyLanguage
# -----------------------------------------------
:version 1.10
:name VICON
:units
  mass 1.0
  length 0.45
  angle deg
:documentation
   .ast/.asf automatically generated from VICON data using
   VICON BodyBuilder and BodyLanguage model FoxedUp or BRILLIANT.MOD
:root
   order TX TY TZ RX RY RZ
   axis XYZ
   position 0 0 0  
   orientation 0 0 0 
:bonedata
  begin
     id 1 
     name lhipjoint
     direction 0.643272 -0.706573 0.294883 
     length 2.58915 
     axis 0 0 0  XYZ
  end
  begin
     id 2 
     name lfemur
     direction 0.34202 -0.939693 0  
     length 7.06802  
     axis 0 0 20  XYZ
    dof rx ry rz
    limits (-160.0 20.0)
           (-70.0 70.0)
           (-60.0 70.0)
  end
  begin
     id 3 
     name ltibia
     direction 0.34202 -0.939693 0   
     length 7.94147   
     axis 0 0 20   XYZ
    dof rx
    limits (-10.0 170.0)
  end
  begin
     id 4 
     name lfoot
     direction 0.0435058 -0.119531 0.991877   
     length 1.8399   
     axis -90 7.62852e-016 20   XYZ
    dof rx rz
    limits (-45.0 90.0)
           (-70.0 20.0)
  end
  begin
     id 5 
     name ltoes
     direction 1.53505e-011 -4.22157e-011 1   
     length 0.934412   
     axis -90 7.62852e-016 20   XYZ
    dof rx
    limits (-90.0 20.0)
  end
  begin
     id 6 
     name rhipjoint
     direction -0.636801 -0.711547 0.296959   
     length 2.57105  
     axis 0 0 0  XYZ 
  end
  begin
     id 7 
     name rfemur
     direction -0.34202 -0.939693 0   
     length 7.03285   
     axis 0 0 -20   XYZ
    dof rx ry rz
    limits (-160.0 20.0)
           (-70.0 70.0)
           (-70.0 60.0)
  end
  begin
     id 8 
     name rtibia
     direction -0.34202 -0.939693 0   
     length 7.99111   
     axis 0 0 -20   XYZ
    dof rx
    limits (-10.0 170.0)
 end
 begin
     id 9 
     name rfoot
     direction -0.0783088 -0.215152 0.973436   
     length 1.98785  
     axis -90 -7.62852e-016 -20   XYZ
    dof rx rz
    limits (-45.0 90.0)
           (-20.0 70.0)
  end
  begin
     id 10 
     name rtoes
     direction -1.53606e-011 -4.21943e-011 1   
     length 1.001   
     axis -90 -7.62852e-016 -20   XYZ
    dof rx
    limits (-90.0 20.0)
  end
  begin
     id 11 
     name lowerback
     direction 0.00141527 0.998403 -0.0564763   
     length 2.30486   
     axis 0 0 0   XYZ
    dof rx ry rz
    limits (-20.0 45.0)
           (-30.0 30.0)
           (-30.0 30.0)
  end
  begin
     id 12 
     name upperback
     direction 0.0125137 0.999915 0.00361315   
     length 2.30697   
     axis 0 0 0   XYZ
    dof rx ry rz
    limits (-20.0 45.0)
           (-30.0 30.0)
           (-30.0 30.0)
  end
  begin
     id 13 
     name thorax
     direction 0.0136417 0.999471 0.0295116   
     length 2.31005   
     axis 0 0 0   XYZ
    dof rx ry rz
    limits (-20.0 45.0)
           (-30.0 30.0)
           (-30.0 30.0)
  end
  begin
     id 14 
     name lowerneck
     direction 0.0766806 0.997047 0.00422047   
     length 1.68825   
     axis 0 0 0   XYZ
    dof rx ry rz
    limits (-20.0 45.0)
           (-30.0 30.0)
           (-30.0 30.0)
  end
  begin
     id 15 
     name upperneck
     direction -0.143512 0.985106 -0.0947088   
     length 1.69772   
     axis 0 0 0   XYZ
    dof rx ry rz
    limits (-20.0 45.0)
           (-30.0 30.0)
           (-30.0 30.0)
  end
  begin
     id 16
     name head
     direction -0.0539128 0.997849 -0.0372864  
     length 1.71187  
     axis 0 0 0   XYZ
    dof rx ry rz
    limits (-20.0 45.0)
           (-30.0 30.0)
           (-30.0 30.0)
  end
  begin
     id 17 
     name lclavicle
     direction 0.978251 0.207416 -0.00165765  
     length 3.35399  
     axis 0 0 0   XYZ
    dof ry rz
    limits (-20.0 10.0)
           (0.0 20.0)
  end
  begin
     id 18 
     name lhumerus
     direction 1 -4.48966e-011 -1.32191e-028   
     length 5.70706   
     axis 180 -30 -90   XYZ
    dof rx ry rz
    limits (-60.0 90.0)
           (-90.0 90.0)
           (-90.0 90.0)
  end
  begin
     id 19
     name lradius
     direction 1 -4.48976e-011 9.36106e-027   
     length 3.33243   
     axis 180 -30 -90   XYZ
    dof rx
    limits (-10.0 170.0)
  end
  begin
     id 20
     name lwrist
     direction 1 -4.48976e-011 1.1555e-026   
     length 1.66621   
     axis -5.7412e-015 90 90   XYZ
    dof ry
    limits (-180.0 0.0)
 end
  begin
     id 21 
     name lhand
     direction 1 -4.48939e-011 2.31113e-026   
     length 0.792687   
     axis -1.47463e-014 90 90   XYZ
    dof rx rz
    limits (-90.0 90.0)
           (-45.0 45.0)
  end
  begin
     id 22 
     name lfingers
     direction 1 -4.48866e-011 4.62274e-026   
     length 0.639085   
     axis -2.94925e-014 90 90   XYZ
    dof rx
    limits (0.0 90.0)
  end
  begin
     id 23
     name lthumb
     direction 0.707107 -6.34847e-011 0.707107   
     length 0.917601   
     axis -90 45 -6.68868e-015   XYZ
    dof rx rz
    limits (-45.0 45.0)
           (-45.0 45.0)
  end
  begin
     id 24 
     name rclavicle
     direction -0.981813 0.185514 0.0403428   
     length 3.47271  
     axis 0 0 0   XYZ 
    dof ry rz
    limits (-10.0 20.0)
           (-20.0 0.0)
  end
  begin
     id 25 
     name rhumerus
     direction -1 -4.48972e-011 -6.58544e-029  
     length 5.88176   
     axis 180 30 90   XYZ
    dof rx ry rz
    limits (-90.0 60.0)
           (-90.0 90.0)
           (-90.0 90.0)
  end
  begin
     id 26 
     name rradius
     direction -1 -4.48964e-011 8.36306e-027   
     length 3.28156   
     axis 180 30 90   XYZ
    dof rx
    limits (-10.0 170.0)
  end
  begin
     id 27 
     name rwrist
     direction -1 -4.48903e-011 1.15562e-026   
     length 1.64078   
     axis -5.7412e-015 -90 -90   XYZ
    dof ry
    limits (-180.0 0.0)
  end
  begin
     id 28
     name rhand
     direction -1 -4.49055e-011 2.31074e-026   
     length 0.863125   
     axis -1.47463e-014 -90 -90   XYZ
    dof rx rz
    limits (-90.0 90.0)
           (-45.0 45.0)
  end
  begin
     id 29
     name rfingers
     direction -1 -4.48994e-011 4.62188e-026   
     length 0.695873   
     axis -2.94925e-014 -90 -90   XYZ
    dof rx
    limits (0.0 90.0)
  end
  begin
     id 30
     name rthumb
     direction -0.707107 -6.35058e-011 0.707107   
     length 0.999139   
     axis -90 -45 6.68868e-015   XYZ
    dof rx rz
    limits (-45.0 45.0)
           (-45.0 45.0)
  end
:hierarchy
  begin
    root lhipjoint rhipjoint lowerback
    lhipjoint lfemur
    lfemur ltibia
    ltibia lfoot
    lfoot ltoes
    rhipjoint rfemur
    rfemur rtibia
    rtibia rfoot
    rfoot rtoes
    lowerback upperback
    upperback thorax
    thorax lowerneck lclavicle rclavicle
    lowerneck upperneck
    upperneck head
    lclavicle lhumerus
    lhumerus lradius
    lradius lwrist
    lwrist lhand lthumb
    lhand lfingers
    rclavicle rhumerus
    rhumerus rradius
    rradius rwrist
    rwrist rhand rthumb
    rhand rfingers
  end

#!OML:ASF \\Waltz\H\Terrain\Patient Classification 1\Animal2\Wednesday\Animal2.ASF
:FULLY-SPECIFIED
:DEGREES
1908
root -1.47183 17.6863 12.2973 0.866048 -0.61533 -2.04253
lowerback 6.52635 -3.54873 2.99033
upperback -2.4666 -4.40556 1.14104
thorax -6.37248 -2.26403 0.0498068
lowerneck 9.7374 6.97533 14.8532
upperneck -12.7104 9.24495 -19.9947
head -3.58343 5.21513 -9.26516
rclavicle 2.79696e-014 -8.74653e-015
rhumerus 29.5874 46.3718 -38.9
rradius 90.2357
rwrist -21.6516
rhand -18.0453 18.5672
rfingers 7.12502
rthumb 8.2266 -11.2527
lclavicle 2.79696e-014 -8.74653e-015
lhumerus 25.6781 11.8827 15.6062
lradius 71.7503
lwrist -5.54658
lhand -51.2586 20.7832
lfingers 7.12502
lthumb -23.7966 49.3295
rfemur -10.4472 7.27219 19.9093
rtibia 39.7506
rfoot -17.2915 0.946224
rtoes 19.5779
lfemur -23.2225 5.88265 -15.7115
ltibia 53.1649
lfoot -16.8475 -12.014
ltoes -16.2864
1909
root -1.44432 17.701 12.3128 0.899278 -1.06698 -1.38535
lowerback 6.53243 -3.48258 2.97432
upperback -2.45611 -4.34485 0.697889
thorax -6.39711 -2.24337 -0.409266
lowerneck 9.4649 6.99927 14.6391
upperneck -12.7194 9.24194 -19.6858
head -3.56951 5.19132 -9.10938
rclavicle -2.45903e-014 5.1684e-015
rhumerus 29.4363 46.3978 -39.6502
rradius 90.2086
rwrist -21.6586
rhand -18.2668 18.3241
rfingers 7.12502
rthumb 8.01288 -11.504
lclavicle -2.45903e-014 5.1684e-015
lhumerus 25.7108 12.0763 15.445
lradius 71.6314
lwrist -5.66759
lhand -51.3809 21.2563
lfingers 7.12502
lthumb -23.914 49.7872
rfemur -10.6814 8.16687 19.3473
rtibia 40.1612
rfoot -17.4149 -0.0438651
rtoes 21.8826
lfemur -23.2232 5.61153 -16.7117
ltibia 52.3464
lfoot -15.9475 -12.9878
ltoes -14.1217
1910
root -1.41711 17.7141 12.3289 0.874696 -1.48892 -0.717111
lowerback 6.68398 -3.45104 2.9101
upperback -2.51562 -4.32716 0.288421
thorax -6.57402 -2.24262 -0.789248
lowerneck 9.09594 7.09516 14.527
upperneck -12.4285 9.35949 -19.5308
head -3.41517 5.22759 -8.99976
rclavicle 2.88393e-014 1.09332e-015
rhumerus 29.1637 46.5736 -40.5037
rradius 90.2837
rwrist -21.6707
rhand -18.2253 18.3549
rfingers 7.12502
rthumb 8.0529 -11.4717
lclavicle 2.88393e-014 1.09332e-015
lhumerus 25.4987 12.1953 15.2373
lradius 71.6683
lwrist -5.54359
lhand -51.2281 20.8984
lfingers 7.12502
lthumb -23.7674 49.4485
rfemur -10.9408 9.13477 18.8202
rtibia 40.7497
rfoot -17.7386 -1.34649
rtoes 22.7728
lfemur -23.1074 5.38922 -17.7298
ltibia 51.37
lfoot -15.4242 -13.4237
ltoes -14.9328
1911
root -1.38714 17.7182 12.3443 0.905295 -1.78438 0.148407
lowerback 6.87286 -3.46001 2.71956
upperback -2.75733 -4.37732 -0.152692
thorax -6.96224 -2.2742 -1.11468
lowerneck 9.22466 7.09622 14.2153
upperneck -12.2845 9.36877 -19.2725
head -3.42701 5.2335 -8.86217
rclavicle 5.22182e-014 5.1684e-015
rhumerus 28.7773 46.9661 -41.29
rradius 90.4387
rwrist -21.7551
rhand -18.1955 18.6344
rfingers 7.12502
rthumb 8.08164 -11.191
lclavicle 5.22182e-014 5.1684e-015
lhumerus 25.1312 12.1383 15.0212
lradius 71.6972
lwrist -5.46493
lhand -51.5867 20.2231
lfingers 7.12502
lthumb -24.1113 48.728
rfemur -11.2457 10.0388 18.0757
rtibia 41.4454
rfoot -18.0589 -2.99416
rtoes 21.8009
lfemur -22.976 4.9188 -18.9964
ltibia 50.2848
lfoot -14.4929 -13.831
ltoes -14.1721
1912
root -1.35488 17.7134 12.3616 1.00081 -2.07676 1.27468
lowerback 6.88773 -3.40425 2.3727
upperback -3.01549 -4.37299 -0.704791
thorax -7.26367 -2.27553 -1.48867
lowerneck 9.55428 6.95678 13.7668
upperneck -12.2693 9.17964 -18.928
head -3.55798 5.15011 -8.69418
rclavicle 6.34309e-014 2.68359e-015
rhumerus 28.2841 47.3494 -42.0368
rradius 90.6017
rwrist -21.844
rhand -18.4249 18.9006
rfingers 7.12502
rthumb 7.8602 -10.9333
lclavicle 6.34309e-014 2.68359e-015
lhumerus 25.0366 12.0036 14.9554
lradius 71.5901
lwrist -5.58801
lhand -52.0214 20.5636
lfingers 7.12502
lthumb -24.528 49.0127
rfemur -11.625 10.9337 17.0106
rtibia 42.1596
rfoot -18.0062 -4.41966
rtoes 22.7285
lfemur -22.8877 4.33419 -20.5717
ltibia 49.095
lfoot -12.7886 -14.2798
ltoes -10.9798
1913
root -1.31776 17.7103 12.3873 0.948039 -2.42794 2.09312
lowerback 6.76643 -3.31945 2.44769
upperback -2.98893 -4.29395 -1.2712
thorax -7.21405 -2.25604 -2.14217
lowerneck 9.39563 6.89367 13.4299
upperneck -12.217 9.06283 -18.5877
head -3.57313 5.0783 -8.5146
rclavicle 2.07062e-014 6.95746e-016
rhumerus 27.9867 47.3834 -42.7193
rradius 90.7958
rwrist -22.098
rhand -18.3142 18.784
rfingers 7.12502
rthumb 7.96712 -11.0459
lclavicle 2.07062e-014 6.95746e-016
lhumerus 25.3048 12.2063 15.0007
lradius 71.4467
lwrist -5.73901
lhand -51.453 21.9455
lfingers 7.12502
lthumb -23.983 50.4673
rfemur -11.8244 11.9499 16.3075
rtibia 42.8763
rfoot -18.1836 -5.46549
rtoes 25.4012
lfemur -22.6094 3.90834 -21.7796
ltibia 47.7492
lfoot -10.478 -14.6926
ltoes -5.46628
1914
root -1.27423 17.7131 12.4254 0.728302 -2.85217 2.79203
lowerback 6.65603 -3.23629 2.71789
upperback -2.8234 -4.19905 -1.86942
thorax -7.038 -2.23545 -2.94474
lowerneck 9.07982 6.85469 13.298
upperneck -12.1845 8.98897 -18.2851
head -3.54595 5.01558 -8.37376
rclavicle 4.05016e-014 2.52953e-014
rhumerus 27.8248 47.2389 -43.3935
rradius 90.9929
rwrist -22.5194
rhand -17.9782 18.6599
rfingers 7.12502
rthumb 8.29138 -11.1574
lclavicle 4.05016e-014 2.52953e-014
lhumerus 25.6844 12.5852 14.9918
lradius 71.1359
lwrist -5.74009
lhand -49.9441 23.6982
lfingers 7.12502
lthumb -22.5355 52.403
rfemur -11.7983 13.0228 15.7638
rtibia 43.6338
rfoot -18.8345 -6.5419
rtoes 26.1205
lfemur -21.9908 3.75173 -22.8739
ltibia 46.2747
lfoot -8.96802 -14.466
ltoes -3.33179
1915
root -1.23358 17.7239 12.454 0.543396 -3.30502 3.78479
lowerback 6.70878 -3.16008 2.62554
upperback -2.78539 -4.15107 -2.54777
thorax -7.07273 -2.22718 -3.61237
lowerneck 8.87661 6.81188 13.3074
upperneck -12.0839 8.95118 -17.965
head -3.50607 4.968 -8.25418
rclavicle -4.98018e-014 -5.96354e-016
rhumerus 27.5646 47.2064 -44.1767
rradius 91.1639
rwrist -22.7113
rhand -18.0757 18.7207
rfingers 7.12502
rthumb 8.1973 -11.1003
lclavicle -4.98018e-014 -5.96354e-016
lhumerus 26.0696 12.8272 14.8187
lradius 70.6153
lwrist -5.57702
lhand -51.0177 21.6444
lfingers 7.12502
lthumb -23.5656 50.2206
rfemur -11.9964 14.1252 14.921
rtibia 44.4339
rfoot -19.1631 -7.98646
rtoes 25.3967
lfemur -21.3344 3.72165 -24.3084
ltibia 44.6286
lfoot -7.98716 -13.8291
ltoes -1.57364
1916
root -1.19811 17.7295 12.4596 0.572703 -3.6507 4.85437
lowerback 6.74895 -3.10364 2.36435
upperback -2.81824 -4.14759 -3.21802
thorax -7.16648 -2.2355 -4.17255
lowerneck 8.50695 6.7488 13.179
upperneck -11.8853 8.87279 -17.4884
head -3.43142 4.89056 -8.04784
rclavicle -3.78933e-015 7.95139e-016
rhumerus 27.4858 47.1307 -44.7443
rradius 91.2826
rwrist -22.7127
rhand -18.5374 18.5294
rfingers 7.12502
rthumb 7.75165 -11.3085
lclavicle -3.78933e-015 7.95139e-016
lhumerus 26.6967 13.0985 14.7754
lradius 70.0593
lwrist -5.47088
lhand -51.5351 21.5981
lfingers 7.12502
lthumb -24.0618 50.1096
rfemur -12.6386 15.2265 13.9972
rtibia 45.3168
rfoot -19.2604 -9.52597
rtoes 26.3866
lfemur -21.0434 3.73325 -25.8016
ltibia 43.1062
lfoot -7.29836 -13.0852
ltoes 1.69581
